<svg width="20" height="20" viewBox="0 0 20 20" fill="none" xmlns="http://www.w3.org/2000/svg">
<g clip-path="url(#clip0_345_3758)">
<path fill-rule="evenodd" clip-rule="evenodd" d="M10.0002 0C5.97309 0 2.7085 3.26459 2.7085 7.29167C2.7085 9.05392 3.33439 10.6714 4.3752 11.9318L4.37516 16.8241C4.37512 17.4328 4.37508 17.9602 4.43395 18.3556C4.49334 18.7545 4.64551 19.2552 5.16081 19.4857C5.66825 19.7126 6.14467 19.5043 6.48937 19.2918C6.83423 19.0793 7.24434 18.7374 7.72115 18.34L8.54092 17.6567C8.99682 17.2767 9.2952 17.0294 9.54277 16.8704C9.77532 16.7211 9.90016 16.6922 10.0002 16.6922C10.1002 16.6922 10.225 16.7211 10.4576 16.8704C10.7051 17.0294 11.0035 17.2767 11.4594 17.6567L12.2792 18.3399C12.756 18.7374 13.1661 19.0793 13.511 19.2918C13.8557 19.5043 14.3321 19.7126 14.8395 19.4857C15.3548 19.2552 15.507 18.7545 15.5664 18.3556C15.6252 17.9602 15.6252 17.4328 15.6252 16.8241L15.6251 11.9318C16.6659 10.6714 17.2918 9.05392 17.2918 7.29167C17.2918 3.26459 14.0272 0 10.0002 0ZM3.9585 7.29167C3.9585 3.95495 6.66344 1.25 10.0002 1.25C13.3369 1.25 16.0418 3.95495 16.0418 7.29167C16.0418 8.82433 15.4719 10.2224 14.5316 11.2878C13.4236 12.5431 11.8046 13.3333 10.0002 13.3333C8.19593 13.3333 6.57701 12.5433 5.46905 11.2881C4.52851 10.2227 3.9585 8.82449 3.9585 7.29167ZM5.67033 18.1716C5.62686 17.8796 5.62516 17.4474 5.62516 16.7739V13.1254C6.84359 14.0405 8.3587 14.5833 10.0002 14.5833C11.6416 14.5833 13.1567 14.0405 14.3752 13.1254V16.7739C14.3752 17.4474 14.3735 17.8796 14.33 18.1716C14.3215 18.2284 14.3127 18.2715 14.3045 18.3037C14.2707 18.2879 14.2255 18.2639 14.1667 18.2277C13.9078 18.0681 13.567 17.7861 13.0421 17.3485L12.2308 16.6723C11.8119 16.3231 11.4539 16.0247 11.1331 15.8187C10.7898 15.5983 10.4286 15.4422 10.0002 15.4422C9.5717 15.4422 9.21048 15.5983 8.86727 15.8187C8.54645 16.0247 8.18845 16.3231 7.76956 16.6723L6.95827 17.3485C6.43333 17.7861 6.09257 18.0681 5.83358 18.2277C5.77481 18.2639 5.72959 18.2879 5.69578 18.3037C5.68765 18.2715 5.67879 18.2284 5.67033 18.1716ZM14.2736 18.3894C14.2735 18.389 14.275 18.3859 14.2787 18.3812C14.2756 18.3875 14.2738 18.3898 14.2736 18.3894ZM14.3806 18.3323C14.3858 18.3323 14.3887 18.3329 14.3888 18.3332C14.389 18.3335 14.3864 18.3335 14.3806 18.3323ZM5.61149 18.3332C5.61164 18.3329 5.61454 18.3323 5.6197 18.3323C5.61391 18.3335 5.61133 18.3335 5.61149 18.3332ZM5.7267 18.3894C5.72685 18.389 5.72531 18.3859 5.7216 18.3812C5.72199 18.382 5.72235 18.3827 5.7227 18.3834C5.72512 18.388 5.72656 18.3897 5.7267 18.3894Z" fill="#34A853"/>
</g>
<defs>
<clipPath id="clip0_345_3758">
<rect width="20" height="20" fill="white"/>
</clipPath>
</defs>
</svg>
