<svg width="20" height="20" viewBox="0 0 20 20" fill="none" xmlns="http://www.w3.org/2000/svg">
<g clip-path="url(#clip0_345_3750)">
<path fill-rule="evenodd" clip-rule="evenodd" d="M16.7424 1.42435C12.2841 0.613757 7.7162 0.613757 3.25793 1.42435C1.49206 1.74542 0.208496 3.28341 0.208496 5.07822V12.024C0.208496 14.4179 2.32077 16.2617 4.69277 15.9383C6.24685 15.7263 7.81045 15.6079 9.37516 15.583V17.987C8.85486 18.0234 8.33695 18.1053 7.82745 18.2327L6.51524 18.5607C6.18037 18.6445 5.97677 18.9838 6.06049 19.3187C6.14421 19.6535 6.48354 19.8571 6.81841 19.7734L8.13062 19.4454C8.74436 19.2919 9.37226 19.2152 10.0002 19.2152C10.6281 19.2152 11.256 19.2919 11.8697 19.4454L13.1819 19.7734C13.5168 19.8571 13.8561 19.6535 13.9398 19.3187C14.0236 18.9838 13.82 18.6445 13.4851 18.5607L12.1729 18.2327C11.6634 18.1053 11.1455 18.0234 10.6252 17.987V15.583C12.1899 15.6079 13.7535 15.7263 15.3076 15.9383C17.6796 16.2617 19.7918 14.4179 19.7918 12.024V5.07822C19.7918 3.28341 18.5083 1.74542 16.7424 1.42435ZM3.48153 2.65419C7.79195 1.87048 12.2084 1.87048 16.5188 2.65419C17.6903 2.86719 18.5418 3.88751 18.5418 5.07822V12.024C18.5418 13.6604 17.0979 14.9208 15.4764 14.6997C13.6594 14.4519 11.8298 14.3281 10.0002 14.3281C8.17053 14.3281 6.3409 14.4519 4.52388 14.6997C2.90241 14.9208 1.4585 13.6604 1.4585 12.024V5.07822C1.4585 3.88751 2.31003 2.86719 3.48153 2.65419Z" fill="url(#paint0_linear_345_3750)"/>
</g>
<defs>
<linearGradient id="paint0_linear_345_3750" x1="1.52033" y1="15.0483" x2="18.2086" y2="5.10484" gradientUnits="userSpaceOnUse">
<stop stop-color="#B33DEB"/>
<stop offset="1" stop-color="#DE8FFF"/>
</linearGradient>
<clipPath id="clip0_345_3750">
<rect width="20" height="20" fill="white"/>
</clipPath>
</defs>
</svg>
